<?xml version="1.0" encoding="UTF-8"?>
<svg xmlns="http://www.w3.org/2000/svg" xmlns:xlink="http://www.w3.org/1999/xlink" width="40pt" height="40pt" viewBox="0 0 40 40" version="1.1">
<g id="surface1">
<rect x="0" y="0" width="40" height="40" style="fill:rgb(31.372549%,35.294118%,43.529412%);fill-opacity:1;stroke:none;"/>
<path style=" stroke:none;fill-rule:nonzero;fill:rgb(100%,100%,100%);fill-opacity:1;" d="M 30.628906 29.011719 C 35.804688 26.6875 39.414062 21.492188 39.414062 15.464844 C 39.414062 7.273438 32.75 0.609375 24.5625 0.609375 L 6.308594 0.609375 C 3.152344 0.609375 0.582031 3.179688 0.582031 6.335938 L 0.582031 33.714844 C 0.582031 36.875 3.152344 39.445312 6.308594 39.445312 L 32.960938 39.445312 C 34.34375 39.445312 35.53125 38.652344 36.058594 37.375 C 36.589844 36.097656 36.308594 34.695312 35.332031 33.714844 Z M 6.308594 2.9375 L 24.5625 2.9375 C 31.464844 2.9375 37.085938 8.558594 37.085938 15.464844 C 37.085938 20.867188 33.648438 25.476562 28.84375 27.226562 L 11.695312 10.074219 C 11.476562 9.855469 11.179688 9.730469 10.871094 9.730469 L 6.308594 9.730469 C 4.433594 9.730469 2.910156 8.207031 2.910156 6.332031 C 2.910156 4.457031 4.433594 2.9375 6.308594 2.9375 Z M 33.910156 36.480469 C 33.847656 36.628906 33.597656 37.113281 32.960938 37.113281 L 6.308594 37.113281 C 4.433594 37.113281 2.910156 35.589844 2.910156 33.714844 L 2.910156 10.941406 C 3.863281 11.644531 5.039062 12.0625 6.308594 12.0625 L 10.390625 12.0625 L 33.6875 35.359375 C 34.136719 35.8125 33.96875 36.328125 33.910156 36.480469 Z M 33.910156 36.480469 "/>
<path style=" stroke:none;fill-rule:nonzero;fill:rgb(100%,100%,100%);fill-opacity:1;" d="M 6.128906 25.65625 L 17.390625 25.65625 C 18.035156 25.65625 18.558594 25.136719 18.558594 24.492188 C 18.558594 23.847656 18.035156 23.328125 17.390625 23.328125 L 6.128906 23.328125 C 5.484375 23.328125 4.964844 23.847656 4.964844 24.492188 C 4.964844 25.136719 5.484375 25.65625 6.128906 25.65625 Z M 6.128906 25.65625 "/>
<path style=" stroke:none;fill-rule:nonzero;fill:rgb(100%,100%,100%);fill-opacity:1;" d="M 6.128906 20.996094 L 13.121094 20.996094 C 13.765625 20.996094 14.285156 20.476562 14.285156 19.832031 C 14.285156 19.1875 13.765625 18.667969 13.121094 18.667969 L 6.128906 18.667969 C 5.484375 18.667969 4.964844 19.1875 4.964844 19.832031 C 4.964844 20.476562 5.484375 20.996094 6.128906 20.996094 Z M 6.128906 20.996094 "/>
<path style=" stroke:none;fill-rule:nonzero;fill:rgb(100%,100%,100%);fill-opacity:1;" d="M 22.050781 27.988281 L 6.128906 27.988281 C 5.484375 27.988281 4.964844 28.507812 4.964844 29.152344 C 4.964844 29.796875 5.484375 30.316406 6.128906 30.316406 L 22.050781 30.316406 C 22.695312 30.316406 23.21875 29.796875 23.21875 29.152344 C 23.21875 28.507812 22.691406 27.988281 22.050781 27.988281 Z M 22.050781 27.988281 "/>
</g>
</svg>
